
<svg width="437" height="437" viewBox="0 0 437 437" fill="none" xmlns="http://www.w3.org/2000/svg">
<path d="M393.419 87.7013C390.826 84.446 387.067 82.3283 382.94 81.7969C378.812 81.2654 374.64 82.3621 371.307 84.8545C367.974 87.3469 365.742 91.0391 365.085 95.1486C364.428 99.2581 365.397 103.462 367.787 106.869C391.94 139.034 404.946 178.198 404.832 218.421C404.832 321.216 321.205 404.843 218.411 404.843C115.616 404.843 32 321.216 32 218.421C32 115.627 115.627 32 218.421 32C248.768 32 277.696 39.0507 304.405 52.9707C308.169 54.9295 312.557 55.313 316.604 54.0368C320.651 52.7606 324.025 49.9291 325.984 46.1653C326.956 44.3025 327.551 42.2665 327.735 40.1735C327.92 38.0806 327.69 35.9719 327.059 33.9678C326.428 31.9638 325.408 30.1038 324.058 28.4941C322.707 26.8844 321.053 25.5566 319.189 24.5867C288.054 8.43971 253.495 0.00763727 218.421 0C97.984 0 0 97.984 0 218.421C0 338.859 97.984 436.843 218.421 436.843C338.859 436.843 436.843 338.859 436.843 218.421C436.843 170.869 421.824 125.664 393.419 87.7013ZM290.997 145.845C287.997 142.846 283.928 141.161 279.685 141.161C275.443 141.161 271.374 142.846 268.373 145.845L218.421 195.797L168.469 145.845C166.993 144.317 165.228 143.098 163.276 142.26C161.324 141.421 159.224 140.98 157.1 140.961C154.975 140.943 152.868 141.348 150.902 142.152C148.936 142.957 147.149 144.145 145.647 145.647C144.145 147.149 142.957 148.936 142.152 150.902C141.348 152.868 140.943 154.975 140.961 157.1C140.98 159.224 141.421 161.324 142.26 163.276C143.098 165.228 144.317 166.993 145.845 168.469L195.797 218.421L145.845 268.373C144.36 269.86 143.182 271.624 142.378 273.565C141.574 275.507 141.161 277.588 141.161 279.689C141.162 283.933 142.849 288.003 145.851 291.003C148.852 294.003 152.923 295.688 157.166 295.687C159.268 295.686 161.348 295.272 163.29 294.467C165.231 293.663 166.995 292.484 168.48 290.997L218.421 241.045L268.373 290.997C271.499 294.123 275.595 295.68 279.691 295.68C283.787 295.68 287.883 294.123 291.008 290.997C294.008 287.997 295.693 283.928 295.693 279.685C295.693 275.443 294.008 271.374 291.008 268.373L241.045 218.421L290.997 168.469C293.997 165.469 295.682 161.4 295.682 157.157C295.682 152.915 293.997 148.846 290.997 145.845Z" fill="#ffb108e0"/>
</svg>
