<svg width="218" height="71" viewBox="0 0 218 71" fill="none" xmlns="http://www.w3.org/2000/svg">
<g clip-path="url(#clip0_560_657)">
<path fill-rule="evenodd" clip-rule="evenodd" d="M22.0217 45.8051C26.8783 45.6636 31.6495 46.2311 36.3351 47.5083C42.2391 49.2841 48.0706 51.2646 53.8296 53.4497C57.313 54.6739 60.8647 55.6507 64.4848 56.3808C71.6503 57.6559 78.5948 56.9166 85.3189 54.1627C89.058 52.6583 92.0266 50.2731 95.4781 48.1628C95.528 48.1323 95.6039 48.0943 95.8022 47.9598C95.7263 48.0558 95.7384 48.0763 95.4051 48.4021C90.2222 53.4635 84.3169 57.2938 77.3669 59.5495C71.3857 61.2455 65.3685 61.3775 59.3161 59.9458C55.6294 59.0207 51.998 57.9119 48.4219 56.6184C43.3149 54.6029 38.1726 52.675 32.9953 50.8357C29.0483 49.4892 24.9929 48.6706 20.8289 48.3795C14.8406 48.0667 9.08871 49.044 3.57324 51.311C9.27757 47.9802 15.427 46.1447 22.0217 45.8051Z" fill="white"/>
<path fill-rule="evenodd" clip-rule="evenodd" d="M40.8729 60.1039C36.5733 58.0988 32.1732 56.3163 27.6727 54.7563C21.4963 52.7128 15.1877 52.0655 8.74712 52.8155C8.26815 52.8289 7.79107 52.8686 7.31579 52.9346C4.80271 53.3359 2.36418 53.9302 0 54.7167C9.36134 49.9664 19.1687 48.7648 29.4221 51.1124C33.4454 52.1845 37.3949 53.4783 41.2705 54.994C44.7516 56.4111 48.2505 57.7843 51.767 59.1137C55.4579 60.489 59.2482 61.4922 63.1382 62.1241C74.3925 63.3027 84.4381 60.4113 93.2759 53.4495C88.2338 58.7929 82.1642 62.6353 75.0662 64.9758C68.0898 66.9487 61.1188 66.9224 54.1525 64.8964C49.6273 63.557 45.2006 61.9591 40.8729 60.1039Z" fill="white"/>
<path fill-rule="evenodd" clip-rule="evenodd" d="M41.5885 59.4697C46.0185 61.5884 50.5777 63.4236 55.2659 64.9755C66.8136 68.2361 77.6805 66.7046 87.8687 60.3806C88.7977 59.7483 89.7254 59.141 90.6519 58.5588C86.0002 63.1224 80.5929 66.5288 74.4298 68.7778C67.3964 71.1116 60.3189 71.244 53.1983 69.1742C48.9615 67.9166 44.8527 66.3325 40.8729 64.4209C36.5308 62.2713 32.1573 60.1851 27.7522 58.1625C23.6959 56.3578 19.4814 55.0639 15.1087 54.2809C10.0364 53.4744 5.00025 53.6327 0 54.7561C0.224801 54.6242 0.463359 54.5319 0.715673 54.4788C3.68126 53.4167 6.72564 52.6366 9.86039 52.221C10.0005 52.2026 9.88119 52.2189 10.0183 52.2001C16.4403 51.3064 22.2119 52.0786 28.3884 54.1221C32.8889 55.6821 37.2889 57.4646 41.5885 59.4697Z" fill="white"/>
<path d="M50.7141 26.8951L34.8569 38.8469C37.6816 38.0529 43.9113 36.217 46.2326 35.2259C48.5543 34.2347 50.1876 35.1306 50.7141 35.7024L58.7642 41.7751L60.0387 38.8469C60.9937 36.7126 61.9592 36.9338 62.7708 37.3677L69.5414 40.7994L54.6503 18.8315L57.1879 34.0543L50.7141 26.8951Z" fill="white"/>
<path d="M16.6127 28.0682L0.214355 43.756L21.1902 35.6088L23.023 41.3833L35.4176 27.5596L33.6611 34.384L48.0642 21.2602L50.7976 6.25477C61.5073 16.6446 57.4785 19.3206 74.1475 41.3833L73.6209 33.1591L96.0158 44.5329L50.1721 0L23.023 28.0682H16.6127Z" fill="white"/>
<path d="M103.029 30.9311V13.9746H106.871V20.3212H113.703V13.9746H117.521V30.9311H113.703V23.6156H106.871V30.9311H103.029ZM119.841 30.9311V13.9746H123.683V30.9311H119.841ZM125.991 30.9311V13.9746H130.562L134.72 24.3665L138.756 13.9746H143.328V30.9311H139.486V20.733L136.203 28.9448H133.115L129.833 20.7088V30.9311H125.991ZM144.107 30.9311L150.283 13.9746H154.684L160.884 30.9311H156.824L155.632 27.4187H149.31L148.094 30.9311H144.107ZM150.38 24.3665H154.587L152.447 18.1895L150.38 24.3665ZM162.036 30.9311V13.9746H165.878V27.6125H172.832V30.9311H162.036ZM173.646 30.9311L179.822 13.9746H184.223L190.424 30.9311H186.363L185.172 27.4187H178.85L177.634 30.9311H173.646ZM179.919 24.3665H184.126L181.986 18.1895L179.919 24.3665ZM193.653 30.9311V23.882L187.817 13.9746H192.169L195.598 20.0063L199.002 13.9746H203.282L197.47 23.882V30.9311H193.653ZM200.716 30.9311L206.892 13.9746H211.293L217.493 30.9311H213.433L212.241 27.4187H205.919L204.704 30.9311H200.716ZM206.989 24.3665H211.196L209.056 18.1895L206.989 24.3665Z" fill="white"/>
<path d="M103.029 56.4079V39.4512H109.521C110.688 39.4512 111.718 39.6531 112.609 40.0568C113.501 40.4605 114.198 41.0419 114.7 41.8011C115.203 42.5436 115.454 43.432 115.454 44.4657C115.454 45.5958 115.146 46.5405 114.53 47.2998C113.914 48.0587 113.063 48.5995 111.977 48.9228L116.621 56.4079H112.196L108.135 49.5041H106.871V56.4079H103.029ZM106.871 46.2582H109.448C110.048 46.2582 110.494 46.1692 110.785 45.9917C111.094 45.7979 111.304 45.5636 111.418 45.2893C111.531 45.0144 111.588 44.74 111.588 44.4657C111.588 44.1908 111.531 43.9244 111.418 43.6663C111.304 43.3915 111.094 43.1655 110.785 42.988C110.494 42.8101 110.048 42.7216 109.448 42.7216H106.871V46.2582ZM117.894 56.4079V39.4512H121.736V56.4079H117.894ZM124.044 56.4079V39.4512H130.803C131.97 39.4512 133.024 39.6611 133.964 40.081C134.905 40.5009 135.642 41.1065 136.177 41.898C136.728 42.689 137.004 43.6337 137.004 44.7321C137.004 45.8138 136.736 46.7585 136.201 47.5663C135.683 48.3573 134.953 48.9712 134.013 49.4073C133.089 49.8433 132.019 50.0613 130.803 50.0613H127.885V56.4079H124.044ZM127.885 46.7911H130.706C131.614 46.7911 132.238 46.589 132.578 46.1855C132.935 45.7654 133.113 45.2809 133.113 44.7321C133.113 44.2151 132.935 43.7548 132.578 43.3514C132.238 42.9312 131.614 42.7216 130.706 42.7216H127.885V46.7911ZM138.433 56.4079V39.4512H145.193C146.36 39.4512 147.414 39.6611 148.354 40.081C149.294 40.5009 150.032 41.1065 150.567 41.898C151.118 42.689 151.393 43.6337 151.393 44.7321C151.393 45.8138 151.126 46.7585 150.591 47.5663C150.072 48.3573 149.343 48.9712 148.403 49.4073C147.479 49.8433 146.409 50.0613 145.193 50.0613H142.275V56.4079H138.433ZM142.275 46.7911H145.096C146.004 46.7911 146.628 46.589 146.968 46.1855C147.325 45.7654 147.503 45.2809 147.503 44.7321C147.503 44.2151 147.325 43.7548 146.968 43.3514C146.628 42.9312 146.004 42.7216 145.096 42.7216H142.275V46.7911ZM152.823 56.4079V39.4512H156.665V53.0892H163.619V56.4079H152.823ZM165.527 56.4079V39.4512H176.712V42.7458H169.369V45.8222H175.569V49.1166H169.369V53.1134H176.712V56.4079H165.527Z" fill="white"/>
</g>
<defs>
<clipPath id="clip0_560_657">
<rect width="218" height="71" fill="white"/>
</clipPath>
</defs>
</svg>
